<?xml version="1.0" encoding="UTF-8"?>
<svg id="Layer_2" data-name="Layer 2" xmlns="http://www.w3.org/2000/svg" viewBox="0 0 3023.73 295.47">
  <g id="drawing">
    <g>
      <path d="m291.68,228.14h-41.65V81.8h41.65v146.34Z" style="fill: none; stroke: #231f20; stroke-miterlimit: 10; stroke-width: 4.63px;"/>
      <path d="m413.94,169.24v24.05c0,10.8-4.06,19.97-11.63,25.68-9.74,7.54-25.42,11.82-43.01,11.82-23.8,0-40.84-7.34-48.69-20.79-3.79-6.73-5.68-15.69-5.68-28.53v-62.16c0-11.41,4.87-22.01,12.98-28.33,9.74-7.54,24.61-11.82,40.57-11.82,32.73,0,55.45,14.67,55.45,35.87v18.34h-41.65v-14.06c0-11.21-3.79-15.9-12.98-15.9-5.95,0-10.28,2.85-11.9,7.54q-.27,1.43-.81,14.67v57.07c0,19.57,2.16,23.64,13.52,23.64,9.47,0,12.17-3.46,12.17-15.9v-21.2h41.65Z" style="fill: none; stroke: #231f20; stroke-miterlimit: 10; stroke-width: 4.63px;"/>
      <path d="m467.76,228.14h-41.65V81.8h41.65v146.34Z" style="fill: #231f20;"/>
      <path d="m598.67,228.14h-47.06l-27.86-79.69v79.69h-40.84V81.8h45.98l28.13,78.26v-78.26h41.65v146.34Z" style="fill: #231f20;"/>
      <path d="m672.51,81.8c14.61,0,27.05,2.85,34.89,7.95,6.76,4.28,11.36,12.43,12.98,23.44.81,5.5,1.35,25.68,1.35,49.73,0,28.13-.81,36.69-3.52,44.43-5.95,14.88-18.39,20.79-44.36,20.79h-60.32V81.8h58.96Zm-12.98,123.51c20.02-.82,20.29-1.43,20.83-46.88-.27-21.4-.81-33.83-1.08-37.71-.81-12.02-4.06-14.88-17.31-15.49h-7.57v100.07h5.14Z" style="fill: #231f20;"/>
      <path d="m819.93,139.48v26.09h-43.82v36.48h53.82v26.09h-95.21V81.8h90.07v25.88h-48.69v31.79h43.82Z" style="fill: #231f20;"/>
      <path d="m881.59,228.14h-41.92V81.8h59.5c14.06,0,27.32,2.45,33.81,6.11,10.28,5.91,15.15,17.94,15.15,36.89,0,32.81-11.09,43.62-44.63,43.62h-21.91v59.72Zm6.49-83.56c14.61,0,17.58-3.67,17.58-20.18,0-14.88-3.52-18.75-16.77-18.75h-7.3v38.93h6.49Z" style="fill: #231f20;"/>
      <path d="m1041.71,139.48v26.09h-43.82v36.48h53.82v26.09h-95.21V81.8h90.07v25.88h-48.69v31.79h43.82Z" style="fill: #231f20;"/>
      <path d="m1177.22,228.14h-47.06l-27.86-79.69v79.69h-40.84V81.8h45.98l28.13,78.26v-78.26h41.65v146.34Z" style="fill: #231f20;"/>
      <path d="m1251.06,81.8c14.61,0,27.05,2.85,34.89,7.95,6.76,4.28,11.36,12.43,12.98,23.44.81,5.5,1.35,25.68,1.35,49.73,0,28.13-.81,36.69-3.52,44.43-5.95,14.88-18.39,20.79-44.36,20.79h-60.32V81.8h58.96Zm-12.98,123.51c20.02-.82,20.29-1.43,20.83-46.88-.27-21.4-.81-33.83-1.08-37.71-.81-12.02-4.06-14.88-17.31-15.49h-7.57v100.07h5.14Z" style="fill: #231f20;"/>
      <path d="m1398.47,139.48v26.09h-43.82v36.48h53.82v26.09h-95.21V81.8h90.07v25.88h-48.69v31.79h43.82Z" style="fill: #231f20;"/>
      <path d="m1533.98,228.14h-47.06l-27.86-79.69v79.69h-40.84V81.8h45.98l28.13,78.26v-78.26h41.65v146.34Z" style="fill: #231f20;"/>
      <path d="m1619.45,228.14h-41.38v-120.66h-37.06v-25.68h115.22v25.68h-36.78v120.66Z" style="fill: #231f20;"/>
      <path d="m1824.47,169.24v24.05c0,10.8-4.06,19.97-11.63,25.68-9.74,7.54-25.42,11.82-43.01,11.82-23.8,0-40.84-7.34-48.69-20.79-3.79-6.73-5.68-15.69-5.68-28.53v-62.16c0-11.41,4.87-22.01,12.98-28.33,9.74-7.54,24.61-11.82,40.57-11.82,32.73,0,55.45,14.67,55.45,35.87v18.34h-41.65v-14.06c0-11.21-3.79-15.9-12.98-15.9-5.95,0-10.28,2.85-11.9,7.54q-.27,1.43-.81,14.67v57.07c0,19.57,2.16,23.64,13.52,23.64,9.47,0,12.17-3.46,12.17-15.9v-21.2h41.65Z" style="fill: #231f20;"/>
      <path d="m1834.74,126.44c0-18.55,3.25-28.74,11.36-35.87,8.11-7.13,24.61-11.41,43.55-11.41,22.18,0,38.95,6.52,47.6,18.75,5.14,7.34,6.22,12.43,6.22,28.13v52.99c0,20.18-1.62,27.72-7.3,34.65-9.2,10.8-26.24,17.12-46.79,17.12-22.18,0-40.84-6.32-47.87-16.51-4.06-5.5-4.87-8.56-5.95-20.99-.54-5.71-.81-11.41-.81-14.27v-52.58Zm68.43,0c0-18.75-2.7-23.23-13.79-23.23-5.41,0-10.01,2.24-11.36,5.71-1.62,3.46-1.62,3.87-1.89,17.53v52.58c.27,17.73.27,18.14,1.89,21.2,2.16,4.08,5.68,6.11,11.09,6.11,5.68,0,9.74-1.83,11.9-5.5,1.35-2.65,1.62-5.3,2.16-21.81v-52.58Z" style="fill: #231f20;"/>
      <path d="m2072.22,228.14h-47.06l-27.86-79.69v79.69h-40.84V81.8h45.98l28.13,78.26v-78.26h41.65v146.34Z" style="fill: #231f20;"/>
      <path d="m2157.69,228.14h-41.38v-120.66h-37.06v-25.68h115.22v25.68h-36.78v120.66Z" style="fill: #231f20;"/>
      <path d="m2242.89,228.14h-41.11V81.8h62.75c13.25,0,22.72,1.63,28.94,5.1,10.28,5.71,15.69,16.71,15.69,32.41,0,12.02-2.43,20.99-7.03,26.09-2.71,3.06-6.22,5.09-13.79,7.34,13.25,4.48,18.39,12.02,20.56,29.96v30.98c0,6.73.27,8.97,1.35,14.47h-42.46v-41.17c0-.82-1.08-9.99-1.35-11.01-1.62-6.93-7.3-9.99-19.2-9.99-1.35,0-2.43,0-4.33.41v61.75Zm7.03-85.4c14.06,0,17.85-4.08,17.85-19.77,0-13.25-3.52-17.32-14.88-17.32h-10.01v37.09h7.03Z" style="fill: #231f20;"/>
      <path d="m2361.08,201.24l-5.14,26.9h-41.38l35.97-146.34h52.2l36.51,146.34h-42.74l-4.87-26.9h-30.56Zm14.88-94.98l-11.9,70.52h24.34l-12.44-70.52Z" style="fill: #231f20;"/>
      <path d="m2549.6,169.24v24.05c0,10.8-4.06,19.97-11.63,25.68-9.74,7.54-25.42,11.82-43.01,11.82-23.8,0-40.84-7.34-48.69-20.79-3.79-6.73-5.68-15.69-5.68-28.53v-62.16c0-11.41,4.87-22.01,12.98-28.33,9.74-7.54,24.61-11.82,40.57-11.82,32.73,0,55.45,14.67,55.45,35.87v18.34h-41.65v-14.06c0-11.21-3.79-15.9-12.98-15.9-5.95,0-10.28,2.85-11.9,7.54q-.27,1.43-.81,14.67v57.07c0,19.57,2.16,23.64,13.52,23.64,9.47,0,12.17-3.46,12.17-15.9v-21.2h41.65Z" style="fill: #231f20;"/>
      <path d="m2633.17,228.14h-41.38v-120.66h-37.06v-25.68h115.22v25.68h-36.78v120.66Z" style="fill: #231f20;"/>
      <path d="m2675.37,126.44c0-18.55,3.25-28.74,11.36-35.87,8.11-7.13,24.61-11.41,43.55-11.41,22.18,0,38.95,6.52,47.6,18.75,5.14,7.34,6.22,12.43,6.22,28.13v52.99c0,20.18-1.62,27.72-7.3,34.65-9.2,10.8-26.24,17.12-46.79,17.12-22.18,0-40.84-6.32-47.87-16.51-4.06-5.5-4.87-8.56-5.95-20.99-.54-5.71-.81-11.41-.81-14.27v-52.58Zm68.43,0c0-18.75-2.71-23.23-13.79-23.23-5.41,0-10.01,2.24-11.36,5.71-1.62,3.46-1.62,3.87-1.89,17.53v52.58c.27,17.73.27,18.14,1.89,21.2,2.16,4.08,5.68,6.11,11.09,6.11,5.68,0,9.74-1.83,11.9-5.5,1.35-2.65,1.62-5.3,2.16-21.81v-52.58Z" style="fill: #231f20;"/>
      <path d="m2838.19,228.14h-41.11V81.8h62.75c13.25,0,22.72,1.63,28.94,5.1,10.28,5.71,15.69,16.71,15.69,32.41,0,12.02-2.43,20.99-7.03,26.09-2.71,3.06-6.22,5.09-13.79,7.34,13.25,4.48,18.39,12.02,20.56,29.96v30.98c0,6.73.27,8.97,1.35,14.47h-42.46v-41.17c0-.82-1.08-9.99-1.35-11.01-1.62-6.93-7.3-9.99-19.2-9.99-1.35,0-2.43,0-4.33.41v61.75Zm7.03-85.4c14.06,0,17.85-4.08,17.85-19.77,0-13.25-3.52-17.32-14.88-17.32h-10.01v37.09h7.03Z" style="fill: #231f20;"/>
      <path d="m2980.73,128.89v-11.62c0-8.56-4.6-13.25-13.25-13.25s-12.98,3.67-12.98,10.19c0,8.36,3.25,11.41,26.78,27.11,33.54,22.22,42.46,33.02,42.46,52.38,0,23.85-19.2,37.09-53.55,37.09-25.7,0-45.17-6.73-53.01-18.14-4.33-6.52-5.68-11.62-5.68-24.05v-11.01h42.19v13.45c0,10.19,4.87,15.08,14.61,15.08,8.66,0,13.52-4.08,13.52-11.21,0-9.99-5.41-16.1-23.53-27.51-35.16-21.81-45.17-33.22-45.17-51.56,0-22.83,19.75-36.69,52.74-36.69,26.24,0,46.79,9.17,52.2,23.23,1.89,5.5,2.43,10.6,2.71,26.5h-40.03Z" style="fill: #231f20;"/>
    </g>
    <g id="triagnle">
      <line x1="206.23" y1="94.36" x2="209.52" y2="94.36" style="fill: none; stroke: #231f20; stroke-miterlimit: 10; stroke-width: .71px;"/>
      <line x1="206.23" y1="115.71" x2="209.52" y2="115.71" style="fill: none; stroke: #231f20; stroke-miterlimit: 10; stroke-width: .71px;"/>
      <line x1="206.23" y1="137.05" x2="209.52" y2="137.05" style="fill: none; stroke: #231f20; stroke-miterlimit: 10; stroke-width: .71px;"/>
      <line x1="206.23" y1="159.09" x2="209.52" y2="159.09" style="fill: none; stroke: #231f20; stroke-miterlimit: 10; stroke-width: .71px;"/>
      <line x1="206.23" y1="202.61" x2="209.52" y2="202.61" style="fill: none; stroke: #231f20; stroke-miterlimit: 10; stroke-width: .71px;"/>
      <line x1="206.23" y1="181.13" x2="209.52" y2="181.13" style="fill: none; stroke: #231f20; stroke-miterlimit: 10; stroke-width: .71px;"/>
      <path id="Big_Tri" data-name="Big Tri" d="m208.03,71.11L55.8,223.34c-.55.55-.16,1.5.62,1.5h152.23c.48,0,.88-.39.88-.88V71.73c0-.78-.94-1.17-1.5-.62Z" style="fill: none; stroke: #231f20; stroke-miterlimit: 10; stroke-width: 1.42px;"/>
      <path id="diamond" d="m206.48,148.58l-3.83,2.81c-.07.05-.17.05-.25,0l-3.81-2.81c-.12-.09-.11-.26.01-.34l3.81-2.47c.07-.04.16-.04.23,0l3.83,2.47c.12.08.13.26.01.34Z" style="fill: none; stroke: #231f20; stroke-miterlimit: 10; stroke-width: .71px;"/>
      <path d="m183.19,137.55l-81.44,81.75c-1.28,1.28-3.36,1.28-4.65,0h0c-1.28-1.28-1.28-3.36,0-4.64l81.43-81.74c1.2-1.2,3.14-1.21,4.34,0h0s.31.31.31.31c1.19,1.19,1.2,3.13,0,4.33Z" style="fill: none; stroke: #231f20; stroke-miterlimit: 10; stroke-width: .71px;"/>
      <path d="m179.16,162.19l-45.67,45.82c-3.77,3.78-1.09,10.24,4.25,10.24h43.43c4.23,0,7.65-3.43,7.65-7.65v-44.41c0-5.05-6.11-7.57-9.67-4Z" style="fill: none; stroke: #231f20; stroke-miterlimit: 10; stroke-width: .71px;"/>
      <rect x="49.6" y="224.83" width="162.12" height="6.9" rx="1.1" ry="1.1" style="fill: #231f20;"/>
      <line x1="197.82" y1="81.31" x2="197.82" y2="87.96" style="fill: none; stroke: #231f20; stroke-miterlimit: 10; stroke-width: .71px;"/>
      <line x1="186.89" y1="92.25" x2="188" y2="98.89" style="fill: none; stroke: #231f20; stroke-miterlimit: 10; stroke-width: .71px;"/>
      <line x1="177.07" y1="102.07" x2="178.83" y2="107.71" style="fill: none; stroke: #231f20; stroke-miterlimit: 10; stroke-width: .71px;"/>
      <line x1="168.84" y1="110.3" x2="171.07" y2="116.18" style="fill: none; stroke: #231f20; stroke-miterlimit: 10; stroke-width: .71px;"/>
      <line x1="160.84" y1="118.29" x2="163.31" y2="123" style="fill: none; stroke: #231f20; stroke-miterlimit: 10; stroke-width: .71px;"/>
      <line x1="153.37" y1="125.76" x2="156.49" y2="129.82" style="fill: none; stroke: #231f20; stroke-miterlimit: 10; stroke-width: .71px;"/>
      <line x1="146.14" y1="132.99" x2="149.55" y2="137.05" style="fill: none; stroke: #231f20; stroke-miterlimit: 10; stroke-width: .71px;"/>
      <line x1="139.32" y1="139.81" x2="143.55" y2="143.58" style="fill: none; stroke: #231f20; stroke-miterlimit: 10; stroke-width: .71px;"/>
      <line x1="132.68" y1="146.46" x2="136.26" y2="149.81" style="fill: none; stroke: #231f20; stroke-miterlimit: 10; stroke-width: .71px;"/>
      <line x1="126.15" y1="152.98" x2="129.8" y2="156.39" style="fill: none; stroke: #231f20; stroke-miterlimit: 10; stroke-width: .71px;"/>
      <line x1="119.04" y1="160.1" x2="123.68" y2="163.21" style="fill: none; stroke: #231f20; stroke-miterlimit: 10; stroke-width: .71px;"/>
      <line x1="112.04" y1="167.1" x2="117.1" y2="170.04" style="fill: none; stroke: #231f20; stroke-miterlimit: 10; stroke-width: .71px;"/>
      <line x1="104.81" y1="174.33" x2="109.57" y2="177.21" style="fill: none; stroke: #231f20; stroke-miterlimit: 10; stroke-width: .71px;"/>
      <line x1="96.75" y1="182.38" x2="102.16" y2="184.97" style="fill: none; stroke: #231f20; stroke-miterlimit: 10; stroke-width: .71px;"/>
      <line x1="88.17" y1="190.97" x2="94.17" y2="192.61" style="fill: none; stroke: #231f20; stroke-miterlimit: 10; stroke-width: .71px;"/>
      <line x1="78.06" y1="201.08" x2="84.88" y2="201.9" style="fill: none; stroke: #231f20; stroke-miterlimit: 10; stroke-width: .71px;"/>
      <line x1="68.24" y1="210.9" x2="74.88" y2="211.78" style="fill: none; stroke: #231f20; stroke-miterlimit: 10; stroke-width: .71px;"/>
    </g>
    <rect x="-31.16" y="123.71" width="314.2" height="4.43" rx="1.1" ry="1.1" transform="translate(-52.15 125.93) rotate(-45)" style="fill: #231f20;"/>
    <path d="m231.91,20L20.33,232.2c-.63.63-1.66.63-2.29,0L1.18,215.05c-.62-.63-.62-1.65.01-2.27L213.09,1.18c.63-.63,1.65-.63,2.28,0l16.54,16.54c.63.63.63,1.65,0,2.28Z" style="fill: none; stroke: #231f20; stroke-miterlimit: 10; stroke-width: 1.42px;"/>
    <path d="m103.35,136.64l-27.67,27.08c-.75.74-1.97.7-2.68-.07l-4.4-4.8c-.67-.73-.65-1.86.05-2.57l26.93-27.29c.72-.73,1.9-.74,2.63-.03l5.14,5.01c.75.73.75,1.94,0,2.67Z" style="fill: none; stroke: #231f20; stroke-miterlimit: 10; stroke-width: .71px;"/>
    <path d="m165.12,74.87l-27.67,27.08c-.75.74-1.97.7-2.68-.07l-4.4-4.8c-.67-.73-.65-1.86.05-2.57l26.93-27.29c.72-.73,1.9-.74,2.63-.03l5.14,5.01c.75.73.75,1.94,0,2.67Z" style="fill: none; stroke: #231f20; stroke-miterlimit: 10; stroke-width: .71px;"/>
    <path d="m221.69,18.3l-27.67,27.08c-.75.74-1.97.7-2.68-.07l-4.4-4.8c-.67-.73-.65-1.86.05-2.57l26.93-27.29c.72-.73,1.9-.74,2.63-.03l5.14,5.01c.75.73.75,1.94,0,2.67Z" style="fill: none; stroke: #231f20; stroke-miterlimit: 10; stroke-width: .71px;"/>
  </g>
</svg>