<?xml version="1.0" encoding="utf-8"?>
<!-- Generator: Adobe Illustrator 27.0.0, SVG Export Plug-In . SVG Version: 6.00 Build 0)  -->
<svg version="1.1" id="Layer_2_00000027575025751403435770000010062217810010492569_" xmlns="http://www.w3.org/2000/svg" xmlns:xlink="http://www.w3.org/1999/xlink" x="0px" y="0px" viewBox="0 0 3023.7 295.5" style="enable-background: new 0 0 3023.7 295.5" xml:space="preserve">
<style>.st0 {
  fill: #231f20;
}

.st1 {
  fill: none;
  stroke: #231f20;
  stroke-width: .71px;
  stroke-miterlimit: 10;
}

.st2 {
  fill: none;
  stroke: #231f20;
  stroke-width: 1.42px;
  stroke-miterlimit: 10;
}

</style>
<g id="drawing">
	<g>
		<path class="st0" d="M296.6,228.1H255V81.8h41.6V228.1z"></path>
		<path class="st0" d="M427.5,228.1h-47.1l-27.9-79.7v79.7h-40.8V81.8h46l28.1,78.3V81.8h41.7L427.5,228.1L427.5,228.1z"></path>
		<path class="st0" d="M501.4,81.8c14.6,0,27,2.8,34.9,7.9c6.8,4.3,11.4,12.4,13,23.4c0.8,5.5,1.3,25.7,1.3,49.7
			c0,28.1-0.8,36.7-3.5,44.4c-6,14.9-18.4,20.8-44.4,20.8h-60.3V81.8H501.4L501.4,81.8z M488.4,205.3c20-0.8,20.3-1.4,20.8-46.9
			c-0.3-21.4-0.8-33.8-1.1-37.7c-0.8-12-4.1-14.9-17.3-15.5h-7.6v100.1L488.4,205.3L488.4,205.3z"></path>
		<path class="st0" d="M648.8,139.5v26.1H605V202h53.8v26.1h-95.2V81.8h90.1v25.9H605v31.8L648.8,139.5L648.8,139.5z"></path>
		<path class="st0" d="M710.5,228.1h-41.9V81.8H728c14.1,0,27.3,2.4,33.8,6.1c10.3,5.9,15.2,17.9,15.2,36.9
			c0,32.8-11.1,43.6-44.6,43.6h-21.9L710.5,228.1L710.5,228.1z M716.9,144.6c14.6,0,17.6-3.7,17.6-20.2c0-14.9-3.5-18.8-16.8-18.8
			h-7.3v38.9H716.9z"></path>
		<path class="st0" d="M870.6,139.5v26.1h-43.8V202h53.8v26.1h-95.2V81.8h90.1v25.9h-48.7v31.8L870.6,139.5L870.6,139.5z"></path>
		<path class="st0" d="M1006.1,228.1H959l-27.9-79.7v79.7h-40.8V81.8h46l28.1,78.3V81.8h41.7V228.1L1006.1,228.1z"></path>
		<path class="st0" d="M1079.9,81.8c14.6,0,27.1,2.8,34.9,7.9c6.8,4.3,11.4,12.4,13,23.4c0.8,5.5,1.3,25.7,1.3,49.7
			c0,28.1-0.8,36.7-3.5,44.4c-5.9,14.9-18.4,20.8-44.4,20.8h-60.3V81.8H1079.9L1079.9,81.8z M1066.9,205.3
			c20-0.8,20.3-1.4,20.8-46.9c-0.3-21.4-0.8-33.8-1.1-37.7c-0.8-12-4.1-14.9-17.3-15.5h-7.6v100.1L1066.9,205.3L1066.9,205.3z"></path>
		<path class="st0" d="M1227.3,139.5v26.1h-43.8V202h53.8v26.1h-95.2V81.8h90.1v25.9h-48.7v31.8L1227.3,139.5L1227.3,139.5z"></path>
		<path class="st0" d="M1362.8,228.1h-47.1l-27.9-79.7v79.7h-40.8V81.8h46l28.1,78.3V81.8h41.7V228.1L1362.8,228.1z"></path>
		<path class="st0" d="M1448.3,228.1h-41.4V107.5h-37.1V81.8h115.2v25.7h-36.8L1448.3,228.1L1448.3,228.1z"></path>
		<path class="st0" d="M1653.3,169.2v24.1c0,10.8-4.1,20-11.6,25.7c-9.7,7.5-25.4,11.8-43,11.8c-23.8,0-40.8-7.3-48.7-20.8
			c-3.8-6.7-5.7-15.7-5.7-28.5v-62.2c0-11.4,4.9-22,13-28.3c9.7-7.5,24.6-11.8,40.6-11.8c32.7,0,55.4,14.7,55.4,35.9v18.3h-41.7
			v-14.1c0-11.2-3.8-15.9-13-15.9c-5.9,0-10.3,2.8-11.9,7.5c-0.2,1-0.4,5.8-0.8,14.7v57.1c0,19.6,2.2,23.6,13.5,23.6
			c9.5,0,12.2-3.5,12.2-15.9v-21.2L1653.3,169.2L1653.3,169.2z"></path>
		<path class="st0" d="M1663.6,126.4c0-18.6,3.2-28.7,11.4-35.9s24.6-11.4,43.6-11.4c22.2,0,38.9,6.5,47.6,18.8
			c5.1,7.3,6.2,12.4,6.2,28.1v53c0,20.2-1.6,27.7-7.3,34.6c-9.2,10.8-26.2,17.1-46.8,17.1c-22.2,0-40.8-6.3-47.9-16.5
			c-4.1-5.5-4.9-8.6-5.9-21c-0.5-5.7-0.8-11.4-0.8-14.3L1663.6,126.4L1663.6,126.4z M1732,126.4c0-18.8-2.7-23.2-13.8-23.2
			c-5.4,0-10,2.2-11.4,5.7c-1.6,3.5-1.6,3.9-1.9,17.5V179c0.3,17.7,0.3,18.1,1.9,21.2c2.2,4.1,5.7,6.1,11.1,6.1
			c5.7,0,9.7-1.8,11.9-5.5c1.3-2.6,1.6-5.3,2.2-21.8V126.4L1732,126.4z"></path>
		<path class="st0" d="M1901.1,228.1H1854l-27.9-79.7v79.7h-40.8V81.8h46l28.1,78.3V81.8h41.7V228.1L1901.1,228.1z"></path>
		<path class="st0" d="M1986.6,228.1h-41.4V107.5h-37.1V81.8h115.2v25.7h-36.8V228.1z"></path>
		<path class="st0" d="M2071.8,228.1h-41.1V81.8h62.8c13.2,0,22.7,1.6,28.9,5.1c10.3,5.7,15.7,16.7,15.7,32.4c0,12-2.4,21-7,26.1
			c-2.7,3.1-6.2,5.1-13.8,7.3c13.2,4.5,18.4,12,20.6,30v31c0,6.7,0.3,9,1.4,14.5h-42.5V187c0-0.8-1.1-10-1.4-11
			c-1.6-6.9-7.3-10-19.2-10c-1.4,0-2.4,0-4.3,0.4L2071.8,228.1L2071.8,228.1z M2078.8,142.7c14.1,0,17.9-4.1,17.9-19.8
			c0-13.2-3.5-17.3-14.9-17.3h-10v37.1H2078.8L2078.8,142.7z"></path>
		<path class="st0" d="M2189.9,201.2l-5.1,26.9h-41.4l36-146.3h52.2l36.5,146.3h-42.7l-4.9-26.9H2189.9L2189.9,201.2z M2204.8,106.3
			l-11.9,70.5h24.3L2204.8,106.3L2204.8,106.3z"></path>
		<path class="st0" d="M2378.5,169.2v24.1c0,10.8-4.1,20-11.6,25.7c-9.7,7.5-25.4,11.8-43,11.8c-23.8,0-40.8-7.3-48.7-20.8
			c-3.8-6.7-5.7-15.7-5.7-28.5v-62.2c0-11.4,4.9-22,13-28.3c9.7-7.5,24.6-11.8,40.6-11.8c32.7,0,55.4,14.7,55.4,35.9v18.3h-41.6
			v-14.1c0-11.2-3.8-15.9-13-15.9c-5.9,0-10.3,2.8-11.9,7.5c-0.2,1-0.4,5.8-0.8,14.7v57.1c0,19.6,2.2,23.6,13.5,23.6
			c9.5,0,12.2-3.5,12.2-15.9v-21.2L2378.5,169.2L2378.5,169.2z"></path>
		<path class="st0" d="M2462,228.1h-41.4V107.5h-37.1V81.8h115.2v25.7H2462V228.1z"></path>
		<path class="st0" d="M2504.2,126.4c0-18.6,3.2-28.7,11.4-35.9s24.6-11.4,43.6-11.4c22.2,0,38.9,6.5,47.6,18.8
			c5.1,7.3,6.2,12.4,6.2,28.1v53c0,20.2-1.6,27.7-7.3,34.6c-9.2,10.8-26.2,17.1-46.8,17.1c-22.2,0-40.8-6.3-47.9-16.5
			c-4.1-5.5-4.9-8.6-5.9-21c-0.5-5.7-0.8-11.4-0.8-14.3L2504.2,126.4L2504.2,126.4z M2572.7,126.4c0-18.8-2.7-23.2-13.8-23.2
			c-5.4,0-10,2.2-11.4,5.7c-1.6,3.5-1.6,3.9-1.9,17.5V179c0.3,17.7,0.3,18.1,1.9,21.2c2.2,4.1,5.7,6.1,11.1,6.1
			c5.7,0,9.7-1.8,11.9-5.5c1.4-2.6,1.6-5.3,2.2-21.8L2572.7,126.4L2572.7,126.4z"></path>
		<path class="st0" d="M2667.1,228.1h-41.1V81.8h62.8c13.2,0,22.7,1.6,28.9,5.1c10.3,5.7,15.7,16.7,15.7,32.4c0,12-2.4,21-7,26.1
			c-2.7,3.1-6.2,5.1-13.8,7.3c13.2,4.5,18.4,12,20.6,30v31c0,6.7,0.3,9,1.4,14.5H2692V187c0-0.8-1.1-10-1.4-11
			c-1.6-6.9-7.3-10-19.2-10c-1.4,0-2.4,0-4.3,0.4L2667.1,228.1L2667.1,228.1z M2674.1,142.7c14.1,0,17.9-4.1,17.9-19.8
			c0-13.2-3.5-17.3-14.9-17.3h-10v37.1H2674.1L2674.1,142.7z"></path>
		<path class="st0" d="M2809.6,128.9v-11.6c0-8.6-4.6-13.2-13.2-13.2s-13,3.7-13,10.2c0,8.4,3.2,11.4,26.8,27.1
			c33.5,22.2,42.5,33,42.5,52.4c0,23.9-19.2,37.1-53.6,37.1c-25.7,0-45.2-6.7-53-18.1c-4.3-6.5-5.7-11.6-5.7-24.1v-11h42.2V191
			c0,10.2,4.9,15.1,14.6,15.1c8.7,0,13.5-4.1,13.5-11.2c0-10-5.4-16.1-23.5-27.5c-35.2-21.8-45.2-33.2-45.2-51.6
			c0-22.8,19.8-36.7,52.7-36.7c26.2,0,46.8,9.2,52.2,23.2c1.9,5.5,2.4,10.6,2.7,26.5L2809.6,128.9L2809.6,128.9z"></path>
	</g>
	<g id="triagnle">
		<line class="st1" x1="228" y1="94.4" x2="231.3" y2="94.4"></line>
		<line class="st1" x1="228" y1="115.7" x2="231.3" y2="115.7"></line>
		<line class="st1" x1="228" y1="137.1" x2="231.3" y2="137.1"></line>
		<line class="st1" x1="228" y1="159.1" x2="231.3" y2="159.1"></line>
		<line class="st1" x1="228" y1="202.6" x2="231.3" y2="202.6"></line>
		<line class="st1" x1="228" y1="181.1" x2="231.3" y2="181.1"></line>
		<path id="Big_Tri" class="st2" d="M229.8,71.1L77.6,223.3c-0.6,0.6-0.2,1.5,0.6,1.5h152.2c0.5,0,0.9-0.4,0.9-0.9V71.7
			C231.3,71,230.3,70.6,229.8,71.1z"></path>
		<path id="diamond" class="st1" d="M228.2,148.6l-3.8,2.8c-0.1,0.1-0.2,0.1-0.2,0l-3.8-2.8c-0.1-0.1-0.1-0.3,0-0.3l3.8-2.5
			c0.1,0,0.2,0,0.2,0l3.8,2.5C228.3,148.3,228.4,148.5,228.2,148.6L228.2,148.6z"></path>
		<path class="st1" d="M204.9,137.6l-81.4,81.8c-1.3,1.3-3.4,1.3-4.7,0l0,0c-1.3-1.3-1.3-3.4,0-4.6l81.4-81.7c1.2-1.2,3.1-1.2,4.3,0
			l0,0l0.3,0.3C206.1,134.4,206.1,136.4,204.9,137.6L204.9,137.6z"></path>
		<path class="st1" d="M200.9,162.2L155.2,208c-3.8,3.8-1.1,10.2,4.2,10.2h43.4c4.2,0,7.6-3.4,7.6-7.6v-44.4
			C210.6,161.1,204.5,158.6,200.9,162.2L200.9,162.2z"></path>
		<path class="st0" d="M72.5,224.8h159.9c0.6,0,1.1,0.5,1.1,1.1v4.7c0,0.6-0.5,1.1-1.1,1.1H72.5c-0.6,0-1.1-0.5-1.1-1.1v-4.7
			C71.4,225.3,71.8,224.8,72.5,224.8z"></path>
		<line class="st1" x1="219.6" y1="81.3" x2="219.6" y2="88"></line>
		<line class="st1" x1="208.6" y1="92.2" x2="209.8" y2="98.9"></line>
		<line class="st1" x1="198.8" y1="102.1" x2="200.6" y2="107.7"></line>
		<line class="st1" x1="190.6" y1="110.3" x2="192.8" y2="116.2"></line>
		<line class="st1" x1="182.6" y1="118.3" x2="185.1" y2="123"></line>
		<line class="st1" x1="175.1" y1="125.8" x2="178.2" y2="129.8"></line>
		<line class="st1" x1="167.9" y1="133" x2="171.3" y2="137.1"></line>
		<line class="st1" x1="161.1" y1="139.8" x2="165.3" y2="143.6"></line>
		<line class="st1" x1="154.4" y1="146.5" x2="158" y2="149.8"></line>
		<line class="st1" x1="147.9" y1="153" x2="151.6" y2="156.4"></line>
		<line class="st1" x1="140.8" y1="160.1" x2="145.4" y2="163.2"></line>
		<line class="st1" x1="133.8" y1="167.1" x2="138.9" y2="170"></line>
		<line class="st1" x1="126.6" y1="174.3" x2="131.3" y2="177.2"></line>
		<line class="st1" x1="118.5" y1="182.4" x2="123.9" y2="185"></line>
		<line class="st1" x1="109.9" y1="191" x2="115.9" y2="192.6"></line>
		<line class="st1" x1="99.8" y1="201.1" x2="106.6" y2="201.9"></line>
		<line class="st1" x1="90" y1="210.9" x2="96.6" y2="211.8"></line>
	</g>
	<path class="st0" d="M35.8,234.7L256.4,14c0.4-0.4,1.1-0.4,1.6,0l1.6,1.6c0.4,0.4,0.4,1.1,0,1.6L39,237.8c-0.4,0.4-1.1,0.4-1.6,0
		l-1.6-1.6C35.4,235.8,35.4,235.1,35.8,234.7z"></path>
	<path class="st2" d="M253.7,20L42.1,232.2c-0.6,0.6-1.7,0.6-2.3,0l-16.9-17.1c-0.6-0.6-0.6-1.6,0-2.3L234.8,1.2
		c0.6-0.6,1.6-0.6,2.3,0l16.5,16.5C254.3,18.4,254.3,19.4,253.7,20z"></path>
	<path class="st1" d="M125.1,136.6l-27.7,27.1c-0.8,0.7-2,0.7-2.7-0.1l-4.4-4.8c-0.7-0.7-0.7-1.9,0.1-2.6l26.9-27.3
		c0.7-0.7,1.9-0.7,2.6,0l5.1,5C125.9,134.7,125.9,135.9,125.1,136.6L125.1,136.6z"></path>
	<path class="st1" d="M186.9,74.9L159.2,102c-0.8,0.7-2,0.7-2.7-0.1l-4.4-4.8c-0.7-0.7-0.6-1.9,0.1-2.6l26.9-27.3
		c0.7-0.7,1.9-0.7,2.6,0l5.1,5C187.6,72.9,187.6,74.1,186.9,74.9L186.9,74.9z"></path>
	<path class="st1" d="M243.4,18.3l-27.7,27.1c-0.8,0.7-2,0.7-2.7-0.1l-4.4-4.8c-0.7-0.7-0.6-1.9,0.1-2.6l26.9-27.3
		c0.7-0.7,1.9-0.7,2.6,0l5.1,5C244.2,16.4,244.2,17.6,243.4,18.3L243.4,18.3z"></path>
</g>
</svg>
