<?xml version="1.0" encoding="utf-8"?>
<!-- Generator: Adobe Illustrator 27.4.1, SVG Export Plug-In . SVG Version: 6.00 Build 0)  -->
<svg version="1.1" xmlns="http://www.w3.org/2000/svg" xmlns:xlink="http://www.w3.org/1999/xlink" x="300px" y="15.6763px" viewBox="0 0 720 720" style="enable-background: new 0 0 720 720" xml:space="preserve">
<style>.st0 {
  opacity: .34;
}

.st1 {
  fill: none;
  stroke: #000;
  stroke-miterlimit: 10;
}

.st2 {
  fill: none;
  stroke: #000;
  stroke-width: 2px;
  stroke-miterlimit: 10;
}

.st3 {
  fill: none;
  stroke: #000;
  stroke-width: .4632px;
  stroke-miterlimit: 10;
}

.st4 {
  fill: none;
  stroke: #000;
  stroke-width: .9264px;
  stroke-miterlimit: 10;
}

.st5 {
  stroke: #000;
  stroke-width: 2px;
  stroke-miterlimit: 10;
}

.st6 {
  fill: none;
  stroke: #000;
  stroke-width: .4724px;
  stroke-miterlimit: 10;
}

</style>
<g id="Layer_1">
</g>
<g id="drawing">
	<g id="Lines_Right_Side">
	</g>
	<path class="st6" d="M231.4,367.6h-4.2v-14.9h4.2V367.6z"></path>
	<path class="st6" d="M243.8,361.5v2.5c0,1.1-0.4,2-1.2,2.6c-1,0.8-2.6,1.2-4.4,1.2c-2.4,0-4.2-0.7-5-2.1c-0.4-0.7-0.6-1.6-0.6-2.9
		v-6.3c0-1.2,0.5-2.2,1.3-2.9c1-0.8,2.5-1.2,4.1-1.2c3.3,0,5.7,1.5,5.7,3.7v1.9h-4.2v-1.4c0-1.1-0.4-1.6-1.3-1.6
		c-0.6,0-1,0.3-1.2,0.8c0,0.1,0,0.1-0.1,1.5v5.8c0,2,0.2,2.4,1.4,2.4c1,0,1.2-0.4,1.2-1.6v-2.2H243.8z"></path>
	<path d="M249.3,367.6h-4.2v-14.9h4.2V367.6z"></path>
	<path d="M262.7,367.6h-4.8l-2.8-8.1v8.1h-4.2v-14.9h4.7l2.9,8v-8h4.2V367.6z"></path>
	<path d="M270.2,352.6c1.5,0,2.8,0.3,3.6,0.8c0.7,0.4,1.2,1.3,1.3,2.4c0.1,0.6,0.1,2.6,0.1,5.1c0,2.9-0.1,3.7-0.4,4.5
		c-0.6,1.5-1.9,2.1-4.5,2.1h-6.2v-14.9H270.2z M268.9,365.2c2-0.1,2.1-0.1,2.1-4.8c0-2.2-0.1-3.5-0.1-3.8c-0.1-1.2-0.4-1.5-1.8-1.6
		h-0.8v10.2H268.9z"></path>
	<path d="M285.3,358.5v2.7h-4.5v3.7h5.5v2.7h-9.7v-14.9h9.2v2.6h-5v3.2H285.3z"></path>
	<path d="M291.5,367.6h-4.3v-14.9h6.1c1.4,0,2.8,0.2,3.4,0.6c1,0.6,1.5,1.8,1.5,3.8c0,3.3-1.1,4.4-4.6,4.4h-2.2V367.6z M292.2,359
		c1.5,0,1.8-0.4,1.8-2.1c0-1.5-0.4-1.9-1.7-1.9h-0.7v4H292.2z"></path>
	<path d="M307.9,358.5v2.7h-4.5v3.7h5.5v2.7h-9.7v-14.9h9.2v2.6h-5v3.2H307.9z"></path>
	<path d="M321.7,367.6h-4.8l-2.8-8.1v8.1h-4.2v-14.9h4.7l2.9,8v-8h4.2V367.6z"></path>
	<path d="M329.2,352.6c1.5,0,2.8,0.3,3.6,0.8c0.7,0.4,1.2,1.3,1.3,2.4c0.1,0.6,0.1,2.6,0.1,5.1c0,2.9-0.1,3.7-0.4,4.5
		c-0.6,1.5-1.9,2.1-4.5,2.1h-6.2v-14.9H329.2z M327.9,365.2c2-0.1,2.1-0.1,2.1-4.8c0-2.2-0.1-3.5-0.1-3.8c-0.1-1.2-0.4-1.5-1.8-1.6
		h-0.8v10.2H327.9z"></path>
	<path d="M344.3,358.5v2.7h-4.5v3.7h5.5v2.7h-9.7v-14.9h9.2v2.6h-5v3.2H344.3z"></path>
	<path d="M358.1,367.6h-4.8l-2.8-8.1v8.1h-4.2v-14.9h4.7l2.9,8v-8h4.2V367.6z"></path>
	<path d="M366.8,367.6h-4.2v-12.3h-3.8v-2.6h11.8v2.6h-3.8V367.6z"></path>
	<path d="M387.7,361.5v2.5c0,1.1-0.4,2-1.2,2.6c-1,0.8-2.6,1.2-4.4,1.2c-2.4,0-4.2-0.7-5-2.1c-0.4-0.7-0.6-1.6-0.6-2.9v-6.3
		c0-1.2,0.5-2.2,1.3-2.9c1-0.8,2.5-1.2,4.1-1.2c3.3,0,5.7,1.5,5.7,3.7v1.9h-4.2v-1.4c0-1.1-0.4-1.6-1.3-1.6c-0.6,0-1,0.3-1.2,0.8
		c0,0.1,0,0.1-0.1,1.5v5.8c0,2,0.2,2.4,1.4,2.4c1,0,1.2-0.4,1.2-1.6v-2.2H387.7z"></path>
	<path d="M388.8,357.2c0-1.9,0.3-2.9,1.2-3.7c0.8-0.7,2.5-1.2,4.4-1.2c2.3,0,4,0.7,4.9,1.9c0.5,0.7,0.6,1.3,0.6,2.9v5.4
		c0,2.1-0.2,2.8-0.7,3.5c-0.9,1.1-2.7,1.7-4.8,1.7c-2.3,0-4.2-0.6-4.9-1.7c-0.4-0.6-0.5-0.9-0.6-2.1c-0.1-0.6-0.1-1.2-0.1-1.5V357.2
		z M395.7,357.2c0-1.9-0.3-2.4-1.4-2.4c-0.6,0-1,0.2-1.2,0.6c-0.2,0.4-0.2,0.4-0.2,1.8v5.4c0,1.8,0,1.8,0.2,2.2
		c0.2,0.4,0.6,0.6,1.1,0.6c0.6,0,1-0.2,1.2-0.6c0.1-0.3,0.2-0.5,0.2-2.2V357.2z"></path>
	<path d="M413,367.6h-4.8l-2.8-8.1v8.1h-4.2v-14.9h4.7l2.9,8v-8h4.2V367.6z"></path>
	<path d="M421.7,367.6h-4.2v-12.3h-3.8v-2.6h11.8v2.6h-3.8V367.6z"></path>
	<path d="M430.4,367.6h-4.2v-14.9h6.4c1.4,0,2.3,0.2,3,0.5c1,0.6,1.6,1.7,1.6,3.3c0,1.2-0.2,2.1-0.7,2.7c-0.3,0.3-0.6,0.5-1.4,0.7
		c1.4,0.5,1.9,1.2,2.1,3.1v3.2c0,0.7,0,0.9,0.1,1.5h-4.3v-4.2c0-0.1-0.1-1-0.1-1.1c-0.2-0.7-0.7-1-2-1c-0.1,0-0.2,0-0.4,0V367.6z
		 M431.1,358.8c1.4,0,1.8-0.4,1.8-2c0-1.4-0.4-1.8-1.5-1.8h-1v3.8H431.1z"></path>
	<path d="M442.4,364.8l-0.5,2.7h-4.2l3.7-14.9h5.3l3.7,14.9h-4.4l-0.5-2.7H442.4z M444,355.1l-1.2,7.2h2.5L444,355.1z"></path>
	<path d="M461.7,361.5v2.5c0,1.1-0.4,2-1.2,2.6c-1,0.8-2.6,1.2-4.4,1.2c-2.4,0-4.2-0.7-5-2.1c-0.4-0.7-0.6-1.6-0.6-2.9v-6.3
		c0-1.2,0.5-2.2,1.3-2.9c1-0.8,2.5-1.2,4.1-1.2c3.3,0,5.7,1.5,5.7,3.7v1.9h-4.2v-1.4c0-1.1-0.4-1.6-1.3-1.6c-0.6,0-1,0.3-1.2,0.8
		c0,0.1,0,0.1-0.1,1.5v5.8c0,2,0.2,2.4,1.4,2.4c1,0,1.2-0.4,1.2-1.6v-2.2H461.7z"></path>
	<path d="M470.2,367.6H466v-12.3h-3.8v-2.6h11.8v2.6h-3.8V367.6z"></path>
	<path d="M474.5,357.2c0-1.9,0.3-2.9,1.2-3.7c0.8-0.7,2.5-1.2,4.4-1.2c2.3,0,4,0.7,4.9,1.9c0.5,0.7,0.6,1.3,0.6,2.9v5.4
		c0,2.1-0.2,2.8-0.7,3.5c-0.9,1.1-2.7,1.7-4.8,1.7c-2.3,0-4.2-0.6-4.9-1.7c-0.4-0.6-0.5-0.9-0.6-2.1c-0.1-0.6-0.1-1.2-0.1-1.5V357.2
		z M481.5,357.2c0-1.9-0.3-2.4-1.4-2.4c-0.6,0-1,0.2-1.2,0.6c-0.2,0.4-0.2,0.4-0.2,1.8v5.4c0,1.8,0,1.8,0.2,2.2
		c0.2,0.4,0.6,0.6,1.1,0.6c0.6,0,1-0.2,1.2-0.6c0.1-0.3,0.2-0.5,0.2-2.2V357.2z"></path>
	<path d="M491.1,367.6h-4.2v-14.9h6.4c1.4,0,2.3,0.2,3,0.5c1,0.6,1.6,1.7,1.6,3.3c0,1.2-0.2,2.1-0.7,2.7c-0.3,0.3-0.6,0.5-1.4,0.7
		c1.4,0.5,1.9,1.2,2.1,3.1v3.2c0,0.7,0,0.9,0.1,1.5h-4.3v-4.2c0-0.1-0.1-1-0.1-1.1c-0.2-0.7-0.7-1-2-1c-0.1,0-0.2,0-0.4,0V367.6z
		 M491.8,358.8c1.4,0,1.8-0.4,1.8-2c0-1.4-0.4-1.8-1.5-1.8h-1v3.8H491.8z"></path>
	<path d="M505.6,357.4v-1.2c0-0.9-0.5-1.4-1.4-1.4c-0.9,0-1.3,0.4-1.3,1c0,0.9,0.3,1.2,2.7,2.8c3.4,2.3,4.3,3.4,4.3,5.3
		c0,2.4-2,3.8-5.5,3.8c-2.6,0-4.6-0.7-5.4-1.8c-0.4-0.7-0.6-1.2-0.6-2.5v-1.1h4.3v1.4c0,1,0.5,1.5,1.5,1.5c0.9,0,1.4-0.4,1.4-1.1
		c0-1-0.6-1.6-2.4-2.8c-3.6-2.2-4.6-3.4-4.6-5.3c0-2.3,2-3.7,5.4-3.7c2.7,0,4.8,0.9,5.3,2.4c0.2,0.6,0.2,1.1,0.3,2.7H505.6z"></path>
	<g>
		<rect x="223.7" y="358.4" width="0.2" height="0"></rect>
	</g>
	<g>
		<rect x="223.7" y="359.8" width="0.2" height="0"></rect>
	</g>
	<g>
		<rect x="223.7" y="361.2" width="0.2" height="0"></rect>
	</g>
	<g>
		<rect x="223.7" y="362.6" width="0.2" height="0"></rect>
	</g>
	<g>
		<rect x="223.7" y="365.5" width="0.2" height="0"></rect>
	</g>
	<g>
		<rect x="223.7" y="364.1" width="0.2" height="0"></rect>
	</g>
	<g id="Big_Tri_00000027579855927740034100000005256757568769353916_">
		<path d="M223,367.1h-7.3c-0.4,0-0.7-0.2-0.9-0.6s-0.1-0.7,0.2-1l7.3-7.3c0.3-0.3,0.7-0.3,1-0.2c0.4,0.1,0.6,0.5,0.6,0.9v7.3
			C223.9,366.7,223.5,367.1,223,367.1z M222.4,358.3l-7.3,7.3c-0.2,0.2-0.3,0.6-0.2,0.9c0.1,0.3,0.4,0.5,0.8,0.5h7.3
			c0.5,0,0.8-0.4,0.8-0.8v-7.3c0-0.3-0.2-0.6-0.5-0.8C223,358,222.7,358,222.4,358.3L222.4,358.3z"></path>
	</g>
	<g id="diamond_00000129189861568786358640000003324297508565958017_">
		<path d="M223.4,362.2C223.4,362.2,223.4,362.2,223.4,362.2l-0.3-0.2c0,0,0,0,0,0c0,0,0,0,0,0l0.3-0.2c0,0,0,0,0,0l0.3,0.2
			c0,0,0,0,0,0c0,0,0,0,0,0v0L223.4,362.2C223.4,362.2,223.4,362.2,223.4,362.2z M223.4,362.1L223.4,362.1L223.4,362.1z
			 M223.4,362.1L223.4,362.1C223.4,362.1,223.4,362.1,223.4,362.1z M223.2,362l0.2,0.2l0.2-0.2l-0.2-0.2L223.2,362z M223.4,361.8
			L223.4,361.8C223.4,361.8,223.4,361.8,223.4,361.8z"></path>
	</g>
	<g>
		<path d="M216.6,366.8c-0.1,0-0.1,0-0.2-0.1c-0.1-0.1-0.1-0.2,0-0.3l5.4-5.4c0,0,0.1-0.1,0.2-0.1l0,0c0.1,0,0.1,0,0.2,0.1l0,0
			c0.1,0.1,0.1,0.2,0,0.3l-5.4,5.4C216.7,366.7,216.6,366.8,216.6,366.8z M222,360.9c0,0-0.1,0-0.1,0.1l-5.4,5.4
			c-0.1,0.1-0.1,0.2,0,0.3c0.1,0.1,0.2,0.1,0.3,0l5.4-5.4c0.1-0.1,0.1-0.2,0-0.3l0,0C222.1,360.9,222,360.9,222,360.9L222,360.9z"></path>
	</g>
	<g>
		<path d="M221,366.6c-0.5,0-0.9-0.3-1.1-0.7c-0.2-0.5-0.1-1,0.3-1.3l0.4-0.4c0.3-0.3,0.8-0.4,1.2-0.2c0.4,0.2,0.7,0.6,0.7,1.1v0.2
			C222.5,365.9,221.8,366.6,221,366.6z M220.6,364.1L220.6,364.1l-0.4,0.5c-0.3,0.3-0.4,0.8-0.2,1.3c0.2,0.4,0.6,0.7,1.1,0.7
			c0.8,0,1.5-0.7,1.5-1.5v-0.2c0-0.4-0.3-0.8-0.7-1C221.4,363.7,220.9,363.8,220.6,364.1L220.6,364.1z"></path>
	</g>
	<g>
		<path d="M223.8,367.5h-10.3c-0.1,0-0.2-0.1-0.2-0.2l0,0c0-0.1,0.1-0.2,0.2-0.2h10.3c0.1,0,0.2,0.1,0.2,0.2l0,0
			C224,367.4,223.9,367.5,223.8,367.5z"></path>
	</g>
	<g>
		<rect x="223.1" y="357.5" width="0" height="0.4"></rect>
	</g>
	<g>
		<polygon points="222.4,358.7 222.4,358.2 222.4,358.2 222.5,358.7 		"></polygon>
	</g>
	<g>
		<polygon points="221.8,359.3 221.7,358.9 221.7,358.9 221.9,359.3 		"></polygon>
	</g>
	<g>
		<polygon points="221.3,359.8 221.2,359.4 221.2,359.4 221.3,359.8 		"></polygon>
	</g>
	<g>
		<polygon points="220.8,360.3 220.6,360 220.7,360 220.8,360.3 		"></polygon>
	</g>
	<g>
		<polygon points="220.3,360.7 220.1,360.5 220.2,360.4 220.4,360.7 		"></polygon>
	</g>
	<g>
		<polygon points="219.9,361.2 219.7,361 219.7,360.9 219.9,361.2 		"></polygon>
	</g>
	<g>
		<rect x="219.3" y="361.3" transform="matrix(0.6644 -0.7474 0.7474 0.6644 -196.5758 285.2898)" width="0" height="0.4"></rect>
	</g>
	<g>
		<polygon points="219,362.1 218.8,361.9 218.8,361.8 219,362 		"></polygon>
	</g>
	<g>
		<polygon points="218.6,362.5 218.3,362.3 218.4,362.2 218.6,362.5 		"></polygon>
	</g>
	<g>
		<polygon points="218.2,363 217.9,362.8 217.9,362.7 218.2,362.9 		"></polygon>
	</g>
	<g>
		<polygon points="217.7,363.4 217.4,363.2 217.4,363.2 217.8,363.4 		"></polygon>
	</g>
	<g>
		<polygon points="217.2,363.9 216.9,363.7 216.9,363.7 217.3,363.9 		"></polygon>
	</g>
	<g>
		<polygon points="216.7,364.4 216.4,364.2 216.4,364.2 216.8,364.4 		"></polygon>
	</g>
	<g>
		<polygon points="216.2,364.9 215.8,364.8 215.8,364.8 216.2,364.9 		"></polygon>
	</g>
	<g>
		<polygon points="215.6,365.5 215.2,365.5 215.2,365.4 215.6,365.5 		"></polygon>
	</g>
	<g>
		<polygon points="214.9,366.2 214.5,366.1 214.5,366.1 214.9,366.1 		"></polygon>
	</g>
	<path d="M225.7,353.3l-14.5,14.5c-0.1,0.1-0.2,0.1-0.2,0l0,0c-0.1-0.1-0.1-0.2,0-0.2l14.5-14.5c0.1-0.1,0.2-0.1,0.2,0l0,0
		C225.8,353.2,225.8,353.3,225.7,353.3z"></path>
	<path d="M211.2,367.6c0,0-0.1,0-0.1,0l-1.1-1.1c-0.1-0.1-0.1-0.2,0-0.2l14.1-14c0.1-0.1,0.2-0.1,0.2,0l1.1,1.1c0,0,0,0.1,0,0.1
		s0,0.1,0,0.1l-14,14.1C211.3,367.6,211.3,367.6,211.2,367.6C211.3,367.6,211.3,367.6,211.2,367.6z M224.2,352.2
		C224.2,352.2,224.2,352.2,224.2,352.2l-14.1,14.1c0,0,0,0.1,0,0.1l1.1,1.1c0,0,0,0,0,0c0,0,0,0,0,0c0,0,0,0,0,0l14-14.1
		c0,0,0,0,0,0c0,0,0,0,0,0L224.2,352.2C224.2,352.2,224.2,352.2,224.2,352.2z"></path>
	<path d="M211.1,366.8C211.1,366.8,211.1,366.8,211.1,366.8c0,0-0.1,0-0.1,0l-0.3-0.3c-0.1-0.1-0.1-0.1,0-0.2l1.8-1.8
		c0,0,0.1,0,0.1,0c0,0,0,0,0,0c0,0,0.1,0,0.1,0l0.3,0.3c0,0,0,0.1,0,0.1s0,0.1,0,0.1l-1.8,1.8C211.2,366.8,211.1,366.8,211.1,366.8z
		 M212.6,364.5L212.6,364.5C212.6,364.5,212.6,364.5,212.6,364.5l-1.9,1.8c0,0,0,0.1,0,0.1l0.3,0.3c0,0,0,0,0.1,0c0,0,0,0,0,0
		c0,0,0.1,0,0.1,0l1.8-1.8c0,0,0,0,0-0.1c0,0,0-0.1,0-0.1L212.6,364.5C212.7,364.5,212.6,364.5,212.6,364.5z"></path>
	<path d="M214.9,363C214.9,363,214.9,363,214.9,363c0,0-0.1,0-0.1,0l-0.3-0.3c-0.1-0.1-0.1-0.1,0-0.2l1.8-1.8c0.1-0.1,0.1-0.1,0.2,0
		l0.3,0.3c0,0,0,0.1,0,0.1c0,0,0,0.1,0,0.1L215,363C215,363,214.9,363,214.9,363z M216.4,360.7C216.4,360.7,216.4,360.7,216.4,360.7
		l-1.9,1.8c0,0,0,0.1,0,0.1l0.3,0.3c0,0,0,0,0.1,0c0,0,0,0,0,0c0,0,0.1,0,0.1,0l1.8-1.8c0,0,0,0,0-0.1s0-0.1,0-0.1L216.4,360.7
		C216.5,360.7,216.4,360.7,216.4,360.7z"></path>
	<path d="M219,358.9C219,358.9,219,358.9,219,358.9c0,0-0.1,0-0.1,0l-0.3-0.3c-0.1-0.1-0.1-0.1,0-0.2l1.8-1.8c0,0,0.1,0,0.1,0
		c0,0,0,0,0,0c0,0,0.1,0,0.1,0l0.3,0.3c0,0,0,0.1,0,0.1c0,0,0,0.1,0,0.1l-1.8,1.8C219.1,358.9,219,358.9,219,358.9z M220.5,356.6
		L220.5,356.6C220.5,356.6,220.5,356.6,220.5,356.6l-1.9,1.8c0,0,0,0.1,0,0.1l0.3,0.3c0,0,0,0,0.1,0c0,0,0,0,0,0c0,0,0.1,0,0.1,0
		l1.8-1.8c0,0,0,0,0-0.1s0-0.1,0-0.1L220.5,356.6C220.6,356.6,220.5,356.6,220.5,356.6z"></path>
	<path d="M222.8,355.2C222.8,355.2,222.8,355.2,222.8,355.2c0,0-0.1,0-0.1,0l-0.3-0.3c-0.1-0.1-0.1-0.1,0-0.2l1.8-1.8
		c0,0,0.1,0,0.1,0c0,0,0,0,0,0c0,0,0.1,0,0.1,0l0.3,0.3c0,0,0,0.1,0,0.1s0,0.1,0,0.1l-1.8,1.8C222.8,355.2,222.8,355.2,222.8,355.2z
		 M224.3,352.8C224.3,352.8,224.3,352.8,224.3,352.8C224.2,352.8,224.2,352.8,224.3,352.8l-1.9,1.8c0,0,0,0.1,0,0.1l0.3,0.3
		c0,0,0,0,0.1,0c0,0,0,0,0,0c0,0,0.1,0,0.1,0l1.8-1.8c0,0,0,0,0-0.1c0,0,0-0.1,0-0.1L224.3,352.8
		C224.3,352.8,224.3,352.8,224.3,352.8z"></path>
	<polyline points="213.5,363.1 213.6,363.3 213.4,363.5 213.3,363.3 	"></polyline>
	<polygon points="213.4,363.6 213.3,363.4 213.3,363.3 213.4,363.4 213.6,363.3 213.5,363.2 213.6,363.1 213.7,363.3 	"></polygon>
	<polygon points="214.1,364.2 213.4,363.5 213.7,363.2 214.4,363.9 214.3,364 213.6,363.3 213.5,363.5 214.1,364.2 	"></polygon>
	<path d="M213.8,364.3c-0.4,0-0.6-0.3-0.6-0.6s0.3-0.6,0.6-0.6c0.4,0,0.6,0.3,0.6,0.6S214.2,364.3,213.8,364.3z M213.8,363.1
		c-0.3,0-0.6,0.2-0.6,0.6s0.2,0.6,0.6,0.6c0.3,0,0.6-0.2,0.6-0.6S214.1,363.1,213.8,363.1z"></path>
</g>
</svg>
