<?xml version="1.0" encoding="UTF-8"?>
<svg id="Layer_1" data-name="Layer 1" xmlns="http://www.w3.org/2000/svg" viewBox="0 0 720 720">
  <g id="drawing">
    <path d="m231.39,367.6h-4.2v-14.9h4.2v14.9Z" style="fill: none; stroke: #000; stroke-miterlimit: 10; stroke-width: .47px"></path>
    <path d="m243.79,361.5v2.5c0,1.1-.4,2-1.2,2.6-1,.8-2.6,1.2-4.4,1.2-2.4,0-4.2-.7-5-2.1-.4-.7-.6-1.6-.6-2.9v-6.3c0-1.2.5-2.2,1.3-2.9,1-.8,2.5-1.2,4.1-1.2,3.3,0,5.7,1.5,5.7,3.7v1.9h-4.2v-1.4c0-1.1-.4-1.6-1.3-1.6-.6,0-1,.3-1.2.8q0,.1-.1,1.5v5.8c0,2,.2,2.4,1.4,2.4,1,0,1.2-.4,1.2-1.6v-2.2h4.3v-.2Z" style="fill: none; stroke: #000; stroke-miterlimit: 10; stroke-width: .47px"></path>
    <path d="m249.29,367.6h-4.2v-14.9h4.2v14.9Z"></path>
    <path d="m262.69,367.6h-4.8l-2.8-8.1v8.1h-4.2v-14.9h4.7l2.9,8v-8h4.2v14.9h0Z"></path>
    <path d="m270.19,352.6c1.5,0,2.8.3,3.6.8.7.4,1.2,1.3,1.3,2.4.1.6.1,2.6.1,5.1,0,2.9-.1,3.7-.4,4.5-.6,1.5-1.9,2.1-4.5,2.1h-6.2v-14.9h6.1Zm-1.3,12.6c2-.1,2.1-.1,2.1-4.8,0-2.2-.1-3.5-.1-3.8-.1-1.2-.4-1.5-1.8-1.6h-.8v10.2h.6Z"></path>
    <path d="m285.29,358.5v2.7h-4.5v3.7h5.5v2.7h-9.7v-14.9h9.2v2.6h-5v3.2h4.5Z"></path>
    <path d="m291.49,367.6h-4.3v-14.9h6.1c1.4,0,2.8.2,3.4.6,1,.6,1.5,1.8,1.5,3.8,0,3.3-1.1,4.4-4.6,4.4h-2.2v6.1h.1Zm.7-8.6c1.5,0,1.8-.4,1.8-2.1,0-1.5-.4-1.9-1.7-1.9h-.7v4h.6Z"></path>
    <path d="m307.9,358.5v2.7h-4.5v3.7h5.5v2.7h-9.7v-14.9h9.2v2.6h-5v3.2h4.5Z"></path>
    <path d="m321.7,367.6h-4.8l-2.8-8.1v8.1h-4.2v-14.9h4.7l2.9,8v-8h4.2v14.9h0Z"></path>
    <path d="m329.2,352.6c1.5,0,2.8.3,3.6.8.7.4,1.2,1.3,1.3,2.4.1.6.1,2.6.1,5.1,0,2.9-.1,3.7-.4,4.5-.6,1.5-1.9,2.1-4.5,2.1h-6.2v-14.9h6.1Zm-1.3,12.6c2-.1,2.1-.1,2.1-4.8,0-2.2-.1-3.5-.1-3.8-.1-1.2-.4-1.5-1.8-1.6h-.8v10.2h.6Z"></path>
    <path d="m344.3,358.5v2.7h-4.5v3.7h5.5v2.7h-9.7v-14.9h9.2v2.6h-5v3.2h4.5Z"></path>
    <path d="m358.1,367.6h-4.8l-2.8-8.1v8.1h-4.2v-14.9h4.7l2.9,8v-8h4.2v14.9h0Z"></path>
    <path d="m366.8,367.6h-4.2v-12.3h-3.8v-2.6h11.8v2.6h-3.8v12.3Z"></path>
    <path d="m387.7,361.5v2.5c0,1.1-.4,2-1.2,2.6-1,.8-2.6,1.2-4.4,1.2-2.4,0-4.2-.7-5-2.1-.4-.7-.6-1.6-.6-2.9v-6.3c0-1.2.5-2.2,1.3-2.9,1-.8,2.5-1.2,4.1-1.2,3.3,0,5.7,1.5,5.7,3.7v1.9h-4.2v-1.4c0-1.1-.4-1.6-1.3-1.6-.6,0-1,.3-1.2.8q0,.1-.1,1.5v5.8c0,2,.2,2.4,1.4,2.4,1,0,1.2-.4,1.2-1.6v-2.2h4.3v-.2Z"></path>
    <path d="m388.8,357.2c0-1.9.3-2.9,1.2-3.7.8-.7,2.5-1.2,4.4-1.2,2.3,0,4,.7,4.9,1.9.5.7.6,1.3.6,2.9v5.4c0,2.1-.2,2.8-.7,3.5-.9,1.1-2.7,1.7-4.8,1.7-2.3,0-4.2-.6-4.9-1.7-.4-.6-.5-.9-.6-2.1-.1-.6-.1-1.2-.1-1.5v-5.2Zm6.9,0c0-1.9-.3-2.4-1.4-2.4-.6,0-1,.2-1.2.6s-.2.4-.2,1.8v5.4q0,1.8.2,2.2c.2.4.6.6,1.1.6.6,0,1-.2,1.2-.6.1-.3.2-.5.2-2.2v-5.4h.1Z"></path>
    <path d="m413,367.6h-4.8l-2.8-8.1v8.1h-4.2v-14.9h4.7l2.9,8v-8h4.2v14.9h0Z"></path>
    <path d="m421.71,367.6h-4.2v-12.3h-3.8v-2.6h11.8v2.6h-3.8v12.3Z"></path>
    <path d="m430.41,367.6h-4.2v-14.9h6.4c1.4,0,2.3.2,3,.5,1,.6,1.6,1.7,1.6,3.3,0,1.2-.2,2.1-.7,2.7-.3.3-.6.5-1.4.7,1.4.5,1.9,1.2,2.1,3.1v3.2c0,.7,0,.9.1,1.5h-4.3v-4.2c0-.1-.1-1-.1-1.1-.2-.7-.7-1-2-1h-.4v6.2h-.1Zm.7-8.8c1.4,0,1.8-.4,1.8-2,0-1.4-.4-1.8-1.5-1.8h-1v3.8h.7Z"></path>
    <path d="m442.41,364.8l-.5,2.7h-4.2l3.7-14.9h5.3l3.7,14.9h-4.4l-.5-2.7h-3.1Zm1.6-9.7l-1.2,7.2h2.5l-1.3-7.2Z"></path>
    <path d="m461.71,361.5v2.5c0,1.1-.4,2-1.2,2.6-1,.8-2.6,1.2-4.4,1.2-2.4,0-4.2-.7-5-2.1-.4-.7-.6-1.6-.6-2.9v-6.3c0-1.2.5-2.2,1.3-2.9,1-.8,2.5-1.2,4.1-1.2,3.3,0,5.7,1.5,5.7,3.7v1.9h-4.2v-1.4c0-1.1-.4-1.6-1.3-1.6-.6,0-1,.3-1.2.8q0,.1-.1,1.5v5.8c0,2,.2,2.4,1.4,2.4,1,0,1.2-.4,1.2-1.6v-2.2h4.3v-.2Z"></path>
    <path d="m470.21,367.6h-4.2v-12.3h-3.8v-2.6h11.8v2.6h-3.8v12.3Z"></path>
    <path d="m474.51,357.2c0-1.9.3-2.9,1.2-3.7.8-.7,2.5-1.2,4.4-1.2,2.3,0,4,.7,4.9,1.9.5.7.6,1.3.6,2.9v5.4c0,2.1-.2,2.8-.7,3.5-.9,1.1-2.7,1.7-4.8,1.7-2.3,0-4.2-.6-4.9-1.7-.4-.6-.5-.9-.6-2.1-.1-.6-.1-1.2-.1-1.5v-5.2Zm7,0c0-1.9-.3-2.4-1.4-2.4-.6,0-1,.2-1.2.6s-.2.4-.2,1.8v5.4q0,1.8.2,2.2c.2.4.6.6,1.1.6.6,0,1-.2,1.2-.6.1-.3.2-.5.2-2.2v-5.4h.1Z"></path>
    <path d="m491.11,367.6h-4.2v-14.9h6.4c1.4,0,2.3.2,3,.5,1,.6,1.6,1.7,1.6,3.3,0,1.2-.2,2.1-.7,2.7-.3.3-.6.5-1.4.7,1.4.5,1.9,1.2,2.1,3.1v3.2c0,.7,0,.9.1,1.5h-4.3v-4.2c0-.1-.1-1-.1-1.1-.2-.7-.7-1-2-1h-.4v6.2h-.1Zm.7-8.8c1.4,0,1.8-.4,1.8-2,0-1.4-.4-1.8-1.5-1.8h-1v3.8h.7Z"></path>
    <path d="m505.61,357.4v-1.2c0-.9-.5-1.4-1.4-1.4s-1.3.4-1.3,1c0,.9.3,1.2,2.7,2.8,3.4,2.3,4.3,3.4,4.3,5.3,0,2.4-2,3.8-5.5,3.8-2.6,0-4.6-.7-5.4-1.8-.4-.7-.6-1.2-.6-2.5v-1.1h4.3v1.4c0,1,.5,1.5,1.5,1.5.9,0,1.4-.4,1.4-1.1,0-1-.6-1.6-2.4-2.8-3.6-2.2-4.6-3.4-4.6-5.3,0-2.3,2-3.7,5.4-3.7,2.7,0,4.8.9,5.3,2.4.2.6.2,1.1.3,2.7h-4Z"></path>
    <g id="Big_Tri" data-name="Big Tri">
      <path d="m222.99,367.1h-7.3c-.4,0-.7-.2-.9-.6s-.1-.7.2-1l7.3-7.3c.3-.3.7-.3,1-.2.4.1.6.5.6.9v7.3c0,.5-.4.9-.9.9Zm-.6-8.8l-7.3,7.3c-.2.2-.3.6-.2.9s.4.5.8.5h7.3c.5,0,.8-.4.8-.8v-7.3c0-.3-.2-.6-.5-.8-.3-.1-.6-.1-.9.2h0Z"></path>
    </g>
    <g id="diamond">
      <path d="m223.39,362.2h0l-.3-.2h0l.3-.2h0l.3.2h0l-.3.2h0Zm0-.1h0Zm0,0h0Zm-.2-.1l.2.2.2-.2-.2-.2-.2.2Zm.2-.2h0Z"></path>
    </g>
    <path d="m216.59,366.8q-.1,0-.2-.1c-.1-.1-.1-.2,0-.3l5.4-5.4s.1-.1.2-.1h0q.1,0,.2.1h0c.1.1.1.2,0,.3l-5.4,5.4c-.1,0-.2.1-.2.1Zm5.4-5.9s-.1,0-.1.1l-5.4,5.4c-.1.1-.1.2,0,.3.1.1.2.1.3,0l5.4-5.4c.1-.1.1-.2,0-.3h0c-.1-.1-.2-.1-.2-.1h0Z"></path>
    <path d="m220.99,366.6c-.5,0-.9-.3-1.1-.7-.2-.5-.1-1,.3-1.3l.4-.4c.3-.3.8-.4,1.2-.2.4.2.7.6.7,1.1v.2c0,.6-.7,1.3-1.5,1.3Zm-.4-2.5h0l-.4.5c-.3.3-.4.8-.2,1.3.2.4.6.7,1.1.7.8,0,1.5-.7,1.5-1.5v-.2c0-.4-.3-.8-.7-1-.5-.2-1-.1-1.3.2h0Z"></path>
    <path d="m223.79,367.5h-10.3c-.1,0-.2-.1-.2-.2h0c0-.1.1-.2.2-.2h10.3c.1,0,.2.1.2.2h0c0,.1-.1.2-.2.2Z"></path>
    <polygon points="222.39 358.7 222.39 358.2 222.39 358.2 222.49 358.7 222.39 358.7"></polygon>
    <polygon points="221.79 359.3 221.69 358.9 221.69 358.9 221.89 359.3 221.79 359.3"></polygon>
    <polygon points="221.29 359.8 221.19 359.4 221.19 359.4 221.29 359.8"></polygon>
    <polygon points="220.79 360.3 220.59 360 220.69 360 220.79 360.3"></polygon>
    <polygon points="220.29 360.7 220.09 360.5 220.19 360.4 220.39 360.7 220.29 360.7"></polygon>
    <polygon points="219.89 361.2 219.69 361 219.69 360.9 219.89 361.2"></polygon>
    <rect x="219.3" y="361.37" height=".4"></rect>
    <polygon points="218.99 362.1 218.79 361.9 218.79 361.8 218.99 362 218.99 362.1"></polygon>
    <polygon points="218.59 362.5 218.29 362.3 218.39 362.2 218.59 362.5"></polygon>
    <polygon points="218.19 363 217.89 362.8 217.89 362.7 218.19 362.9 218.19 363"></polygon>
    <polygon points="217.69 363.4 217.39 363.2 217.39 363.2 217.79 363.4 217.69 363.4"></polygon>
    <polygon points="217.19 363.9 216.89 363.7 216.89 363.7 217.29 363.9 217.19 363.9"></polygon>
    <polygon points="216.69 364.4 216.39 364.2 216.39 364.2 216.79 364.4 216.69 364.4"></polygon>
    <polygon points="216.19 364.9 215.79 364.8 215.79 364.8 216.19 364.9"></polygon>
    <polygon points="215.59 365.5 215.19 365.5 215.19 365.4 215.59 365.5"></polygon>
    <polygon points="214.89 366.2 214.49 366.1 214.49 366.1 214.89 366.1 214.89 366.2"></polygon>
    <path d="m225.69,353.3l-14.5,14.5c-.1.1-.2.1-.2,0h0c-.1-.1-.1-.2,0-.2l14.5-14.5c.1-.1.2-.1.2,0h0c.1.1.1.2,0,.2Z"></path>
    <path d="m211.19,367.6h-.1l-1.1-1.1c-.1-.1-.1-.2,0-.2l14.1-14c.1-.1.2-.1.2,0l1.1,1.1v.2l-14,14.1q-.1-.1-.2-.1.1,0,0,0Zm13-15.4h0l-14.1,14.1v.1l1.1,1.1h0l14-14.1h0l-1-1.2h0Z"></path>
    <path d="m211.09,366.8h-.1l-.3-.3q-.1-.1,0-.2l1.8-1.8h.2l.3.3v.2l-1.8,1.8h-.1Zm1.5-2.3h0l-1.9,1.8v.1l.3.3h.2l1.8-1.8v-.2l-.4-.2c.1,0,0,0,0,0Z"></path>
    <path d="m214.89,363h-.1l-.3-.3q-.1-.1,0-.2l1.8-1.8q.1-.1.2,0l.3.3v.2l-1.8,1.8h-.1Zm1.5-2.3h0l-1.9,1.8v.1l.3.3h.2l1.8-1.8v-.2l-.4-.2c.1,0,0,0,0,0Z"></path>
    <path d="m218.99,358.9h-.1l-.3-.3q-.1-.1,0-.2l1.8-1.8h.2l.3.3v.2l-1.8,1.8h-.1Zm1.5-2.3h0l-1.9,1.8v.1l.3.3h.2l1.8-1.8v-.2l-.4-.2c.1,0,0,0,0,0Z"></path>
    <path d="m222.79,355.2h-.1l-.3-.3q-.1-.1,0-.2l1.8-1.8h.2l.3.3v.2l-1.8,1.8h-.1Zm1.5-2.4h0q-.1,0,0,0l-1.9,1.8v.1l.3.3h.2l1.8-1.8v-.2l-.4-.2h0Z"></path>
    <polyline points="213.49 363.1 213.59 363.3 213.39 363.5 213.29 363.3"></polyline>
    <polygon points="213.39 363.6 213.29 363.4 213.29 363.3 213.39 363.4 213.59 363.3 213.49 363.2 213.59 363.1 213.69 363.3 213.39 363.6"></polygon>
    <polygon points="214.09 364.2 213.39 363.5 213.69 363.2 214.39 363.9 214.29 364 213.59 363.3 213.49 363.5 214.09 364.2"></polygon>
    <path d="m213.79,364.3c-.4,0-.6-.3-.6-.6s.3-.6.6-.6c.4,0,.6.3.6.6s-.2.6-.6.6Zm0-1.2c-.3,0-.6.2-.6.6s.2.6.6.6c.3,0,.6-.2.6-.6s-.3-.6-.6-.6Z"></path>
  </g>
</svg>